<svg width="68" height="68" viewBox="0 0 68 68" fill="none" xmlns="http://www.w3.org/2000/svg">
<path d="M35.1729 12.7924C35.7043 12.2613 36.4248 11.9629 37.1761 11.9629C37.9274 11.9629 38.648 12.2613 39.1793 12.7924L53.8843 27.4974C54.6691 28.2812 55.2066 29.2781 55.4302 30.3644C55.6538 31.4508 55.5537 32.5789 55.1423 33.6089L48.4414 50.3624C48.0655 51.3003 47.4457 52.1206 46.6461 52.7383C45.8465 53.356 44.8963 53.7487 43.8939 53.8758C40.834 54.2668 34.1614 55.1083 29.5035 55.6721C26.486 56.0404 22.1226 57.0038 18.4166 57.9104C16.4005 58.4019 14.3905 58.9186 12.3873 59.4603L12.0189 59.5651C11.9736 59.5745 11.9406 59.584 11.9198 59.5934L11.8971 59.5963H11.8914C11.4085 59.7292 10.8989 59.7319 10.4145 59.604C9.9302 59.4761 9.48838 59.2222 9.13401 58.8681C8.77964 58.514 8.52538 58.0724 8.39709 57.5882C8.26879 57.1039 8.27105 56.5943 8.40362 56.1113V56.0999L8.41212 56.0773L8.43762 55.9838L8.53962 55.6098C8.62462 55.2839 8.75495 54.8108 8.90795 54.2214C9.21962 53.0456 9.64462 51.4108 10.0923 49.5804C10.9961 45.8744 11.9623 41.5111 12.3278 38.4936C12.5063 37.0203 12.7103 35.3458 12.9228 33.6486C13.0152 32.9028 13.4001 32.2242 13.9928 31.7622C14.5856 31.3002 15.3376 31.0926 16.0834 31.185C16.8292 31.2774 17.5077 31.6623 17.9697 32.2551C18.4317 32.8478 18.6394 33.5998 18.5469 34.3456L17.9519 39.1736C17.6573 41.6074 17.0339 44.6958 16.3709 47.6169L25.6954 38.2924C25.3704 37.0874 25.4527 35.8088 25.9295 34.6554C26.4063 33.502 27.2509 32.5385 28.3319 31.9147C29.413 31.291 30.6698 31.042 31.907 31.2064C33.1442 31.3709 34.2924 31.9396 35.1729 32.8241C36.0536 33.7065 36.6187 34.8546 36.7807 36.0907C36.9427 37.3267 36.6925 38.5817 36.069 39.6612C35.4455 40.7407 34.4835 41.5845 33.3318 42.0619C32.1802 42.5392 30.9033 42.6235 29.699 42.3016L20.3773 51.6233C23.3013 50.9603 26.3896 50.3398 28.8206 50.0451L43.18 48.2544L49.8808 31.5038L35.1758 16.7959C34.6446 16.2646 34.3462 15.5441 34.3462 14.7928C34.3462 14.0415 34.6446 13.3209 35.1758 12.7896M43.1941 8.78325C43.7253 8.25295 44.4453 7.95511 45.1959 7.95511C45.9465 7.95511 46.6664 8.25295 47.1976 8.78325L59.2166 20.8051C59.7137 21.3432 59.9834 22.0528 59.969 22.7853C59.9546 23.5177 59.6574 24.2162 59.1396 24.7344C58.6217 25.2526 57.9234 25.5504 57.191 25.5652C56.4585 25.5801 55.7487 25.311 55.2103 24.8143L43.1913 12.7924C42.6601 12.2611 42.3617 11.5406 42.3617 10.7893C42.3617 10.038 42.6601 9.31741 43.1913 8.78609M16.9999 2.83325C17.591 2.83349 18.1671 3.01854 18.6477 3.36249C19.1284 3.70644 19.4894 4.19208 19.6803 4.75142L20.0486 5.82242C20.8986 8.31292 22.8536 10.2708 25.347 11.1208L26.4151 11.4863C26.9738 11.6777 27.4588 12.039 27.8021 12.5196C28.1454 13.0001 28.33 13.576 28.33 14.1666C28.33 14.7572 28.1454 15.333 27.8021 15.8136C27.4588 16.2942 26.9738 16.6555 26.4151 16.8469L25.3441 17.2153C22.8536 18.0653 20.8958 20.0203 20.0458 22.5136L19.6803 23.5818C19.4888 24.1405 19.1276 24.6254 18.647 24.9687C18.1664 25.312 17.5906 25.4966 16.9999 25.4966C16.4093 25.4966 15.8335 25.312 15.3529 24.9687C14.8723 24.6254 14.5111 24.1405 14.3196 23.5818L13.9513 22.5108C13.5317 21.2815 12.8359 20.1647 11.9174 19.2463C10.999 18.3278 9.88222 17.632 8.65295 17.2124L7.58478 16.8469C7.02606 16.6555 6.54114 16.2942 6.19781 15.8136C5.85449 15.333 5.66992 14.7572 5.66992 14.1666C5.66992 13.576 5.85449 13.0001 6.19781 12.5196C6.54114 12.039 7.02606 11.6777 7.58478 11.4863L8.65578 11.1179C11.1463 10.2679 13.1041 8.31292 13.9541 5.81959L14.3196 4.75142L14.4953 4.33775C14.7367 3.8831 15.0974 3.50282 15.5387 3.23775C15.98 2.97268 16.4852 2.83284 16.9999 2.83325ZM16.9999 11.8886C16.3297 12.7321 15.5654 13.4963 14.7219 14.1666C15.5701 14.8371 16.3294 15.5955 16.9999 16.4418C17.6724 15.5974 18.4308 14.839 19.2751 14.1666C18.4326 13.4962 17.6693 12.7319 16.9999 11.8886Z" fill="black"/>
</svg>
