<svg width="68" height="68" viewBox="0 0 68 68" fill="none" xmlns="http://www.w3.org/2000/svg">
<path d="M22.6667 39.6667C21.8639 39.6667 21.1914 39.3947 20.6493 38.8507C20.1072 38.3067 19.8352 37.6343 19.8333 36.8334C19.8314 36.0325 20.1034 35.3601 20.6493 34.8161C21.1952 34.2721 21.8677 34.0001 22.6667 34.0001C23.4657 34.0001 24.1391 34.2721 24.6868 34.8161C25.2346 35.3601 25.5057 36.0325 25.5 36.8334C25.4943 37.6343 25.2223 38.3077 24.684 38.8536C24.1457 39.3995 23.4732 39.6705 22.6667 39.6667ZM34 39.6667C33.1972 39.6667 32.5248 39.3947 31.9827 38.8507C31.4406 38.3067 31.1686 37.6343 31.1667 36.8334C31.1648 36.0325 31.4368 35.3601 31.9827 34.8161C32.5286 34.2721 33.201 34.0001 34 34.0001C34.799 34.0001 35.4724 34.2721 36.0202 34.8161C36.5679 35.3601 36.839 36.0325 36.8333 36.8334C36.8277 37.6343 36.5557 38.3077 36.0173 38.8536C35.479 39.3995 34.8066 39.6705 34 39.6667ZM45.3333 39.6667C44.5306 39.6667 43.8581 39.3947 43.316 38.8507C42.7739 38.3067 42.5019 37.6343 42.5 36.8334C42.4981 36.0325 42.7701 35.3601 43.316 34.8161C43.8619 34.2721 44.5343 34.0001 45.3333 34.0001C46.1323 34.0001 46.8057 34.2721 47.3535 34.8161C47.9013 35.3601 48.1723 36.0325 48.1667 36.8334C48.161 37.6343 47.889 38.3077 47.3507 38.8536C46.8123 39.3995 46.1399 39.6705 45.3333 39.6667ZM14.1667 62.3334C12.6083 62.3334 11.2748 61.779 10.166 60.6702C9.05722 59.5615 8.50189 58.227 8.5 56.6667V17.0001C8.5 15.4417 9.05533 14.1082 10.166 12.9994C11.2767 11.8906 12.6102 11.3353 14.1667 11.3334H17V5.66675H22.6667V11.3334H45.3333V5.66675H51V11.3334H53.8333C55.3917 11.3334 56.7262 11.8887 57.8368 12.9994C58.9475 14.1101 59.5019 15.4436 59.5 17.0001V56.6667C59.5 58.2251 58.9456 59.5596 57.8368 60.6702C56.7281 61.7809 55.3936 62.3353 53.8333 62.3334H14.1667ZM14.1667 56.6667H53.8333V28.3334H14.1667V56.6667Z" fill="black"/>
</svg>
