<svg width="68" height="68" viewBox="0 0 68 68" fill="none" xmlns="http://www.w3.org/2000/svg">
<path d="M48.1667 42.5001H53.8334V48.1667H48.1667V42.5001ZM53.8334 31.1667H48.1667V36.8334H53.8334V31.1667Z" fill="black"/>
<path fill-rule="evenodd" clip-rule="evenodd" d="M36.8334 19.8333H65.1667V59.5H2.83337V8.5H36.8334V19.8333ZM22.6667 14.1667H31.1667V19.8333H22.6667V14.1667ZM31.1667 53.8333V48.1667H22.6667V53.8333H31.1667ZM31.1667 42.5V36.8333H22.6667V42.5H31.1667ZM31.1667 31.1667V25.5H22.6667V31.1667H31.1667ZM59.5 53.8333V25.5H36.8334V31.1667H42.5V36.8333H36.8334V42.5H42.5V48.1667H36.8334V53.8333H59.5ZM8.50004 53.8333V48.1667H17V53.8333H8.50004ZM8.50004 42.5H17V36.8333H8.50004V42.5ZM17 31.1667V25.5H8.50004V31.1667H17ZM8.50004 19.8333H17V14.1667H8.50004V19.8333Z" fill="black"/>
</svg>
