<svg width="46" height="46" viewBox="0 0 46 46" fill="none" xmlns="http://www.w3.org/2000/svg">
<path d="M22.6667 22.6667C19.55 22.6667 16.8819 21.5569 14.6625 19.3375C12.4431 17.1181 11.3333 14.45 11.3333 11.3333C11.3333 8.21667 12.4431 5.54861 14.6625 3.32917C16.8819 1.10972 19.55 0 22.6667 0C25.7833 0 28.4514 1.10972 30.6708 3.32917C32.8903 5.54861 34 8.21667 34 11.3333C34 14.45 32.8903 17.1181 30.6708 19.3375C28.4514 21.5569 25.7833 22.6667 22.6667 22.6667ZM0 45.3333V37.4C0 35.7944 0.413667 34.3192 1.241 32.9743C2.06833 31.6294 3.16578 30.6019 4.53333 29.8917C7.46111 28.4278 10.4361 27.3303 13.4583 26.5993C16.4806 25.8683 19.55 25.5019 22.6667 25.5C25.7833 25.4981 28.8528 25.8646 31.875 26.5993C34.8972 27.3341 37.8722 28.4316 40.8 29.8917C42.1694 30.6 43.2678 31.6276 44.0952 32.9743C44.9225 34.3211 45.3352 35.7963 45.3333 37.4V45.3333H0Z" fill="black"/>
</svg>
